<svg version="1.1" id="Layer_1" xmlns="http://www.w3.org/2000/svg" xmlns:xlink="http://www.w3.org/1999/xlink" x="0px" y="0px"
	 width="100%" viewBox="0 0 640 640" enable-background="new 0 0 640 640" xml:space="preserve">
<path fill="#EA5F63" opacity="1.000000" stroke="none" 
	d="
M640.000000,0.999996 
	C640.333313,1.166463 640.943909,1.315516 640.955566,1.502198 
	C641.039001,2.829778 641.000000,4.165042 641.000000,5.497855 
	C641.000000,217.248566 641.000000,428.999298 641.000000,641.000000 
	C427.666718,641.000000 214.333359,641.000000 1.273789,640.467407 
	C1.730355,639.915283 1.913131,639.895752 2.554869,639.919189 
	C3.680108,639.977478 4.346385,640.006348 5.012663,640.006348 
	C214.641159,640.009033 424.269653,640.009705 633.898132,640.009766 
	C634.731262,640.009766 635.802246,640.326965 636.350525,639.928955 
	C637.693237,638.954102 639.189758,637.836792 639.873047,636.415527 
	C640.459778,635.194824 640.012146,633.473999 640.012146,631.974365 
	C640.013000,424.012238 640.013367,216.050095 640.007507,8.087954 
	C640.007446,6.089870 639.924194,4.091790 639.908203,1.820100 
	C639.957703,1.364327 639.978821,1.182164 640.000000,0.999996 
z"/>
<path fill="#E64144" opacity="1.000000" stroke="none" 
	d="
M639.540283,1.000000 
	C639.978821,1.182164 639.957703,1.364327 639.451050,1.790530 
	C637.299561,2.022120 635.633484,1.998779 633.967468,1.998766 
	C426.038849,1.997160 218.110245,1.997177 10.181629,1.997657 
	C2.000610,1.997676 1.997742,2.000127 1.997720,10.094827 
	C1.997159,218.023438 1.996982,425.952057 2.001310,633.880676 
	C2.001352,635.879211 2.063014,637.877686 2.095907,639.876221 
	C1.913131,639.895752 1.730355,639.915283 1.273789,639.967407 
	C1.000000,427.069916 1.000000,214.139862 1.000000,1.000000 
	C213.693481,1.000000 426.387024,1.000000 639.540283,1.000000 
z"/>
<path fill="#E22227" opacity="1.000000" stroke="none" 
	d="
M2.554869,639.919189 
	C2.063014,637.877686 2.001352,635.879211 2.001310,633.880676 
	C1.996982,425.952057 1.997159,218.023438 1.997720,10.094827 
	C1.997742,2.000127 2.000610,1.997676 10.181629,1.997657 
	C218.110245,1.997177 426.038849,1.997160 633.967468,1.998766 
	C635.633484,1.998779 637.299561,2.022120 639.422668,2.064138 
	C639.924194,4.091790 640.007446,6.089870 640.007507,8.087954 
	C640.013367,216.050095 640.013000,424.012238 640.012146,631.974365 
	C640.012146,633.473999 640.459778,635.194824 639.873047,636.415527 
	C639.189758,637.836792 637.693237,638.954102 636.350525,639.928955 
	C635.802246,640.326965 634.731262,640.009766 633.898132,640.009766 
	C424.269653,640.009705 214.641159,640.009033 5.012663,640.006348 
	C4.346385,640.006348 3.680108,639.977478 2.554869,639.919189 
M216.029770,495.555298 
	C238.691864,480.835175 246.147858,459.853302 237.953949,434.196960 
	C237.212173,431.874359 236.855087,429.329224 236.849503,426.886200 
	C236.777588,395.391693 236.802063,363.896942 236.802155,332.402252 
	C236.802155,330.660126 236.802155,328.917999 236.802155,327.218689 
	C223.381180,327.218689 210.773041,327.218689 197.586914,327.218689 
	C197.586914,330.156158 197.586914,332.819092 197.586914,335.879730 
	C173.721909,317.530365 135.640381,320.652252 114.844398,343.067352 
	C94.243546,365.272125 92.157913,401.264740 110.412880,425.545319 
	C119.153671,437.171295 130.689224,444.731293 144.843094,447.997070 
	C163.951736,452.406006 181.810822,449.497101 197.830017,437.776886 
	C206.497910,451.612274 202.684799,464.664459 188.384781,471.008301 
	C186.566650,471.814880 184.682922,472.591949 182.748856,473.000763 
	C161.456680,477.501343 142.120697,474.330872 125.769066,458.216705 
	C116.690636,463.852875 107.406776,469.616577 98.006332,475.452667 
	C102.745949,484.996887 109.867043,491.787140 118.877876,496.097687 
	C150.995972,511.462128 183.259140,512.294556 216.029770,495.555298 
M486.441162,354.106537 
	C478.852875,341.262085 468.090271,332.100067 453.901611,327.555908 
	C433.186493,320.921600 413.305054,322.618591 394.771393,335.696686 
	C394.551483,332.421844 394.376678,329.818726 394.202667,327.227173 
	C381.261871,327.227173 368.670013,327.227173 355.983704,327.227173 
	C355.983704,385.706665 355.983704,443.902924 355.983704,502.267242 
	C368.862030,502.267242 381.427002,502.267242 394.507385,502.267242 
	C394.507385,482.747650 394.507385,463.528412 394.507385,443.558319 
	C396.275848,444.655579 397.367065,445.303589 398.429321,445.996002 
	C428.493683,465.592957 471.932281,454.429657 487.904297,422.387207 
	C499.104675,399.917542 498.360565,377.106323 486.441162,354.106537 
M255.222733,187.695007 
	C242.436218,193.542419 233.182999,202.765366 227.659821,216.204437 
	C237.639099,221.445297 247.302155,226.520081 257.125549,231.679062 
	C258.172760,230.151794 258.991241,228.926071 259.841614,227.722885 
	C268.053558,216.104187 281.414124,211.439896 295.081055,215.413803 
	C301.522736,217.286835 304.910370,221.167084 305.702820,227.220764 
	C306.072449,230.044388 305.416718,231.561539 302.277405,231.894272 
	C297.482391,232.402496 292.690765,233.099808 287.961121,234.036880 
	C275.263916,236.552536 262.264008,238.191818 250.011856,242.130905 
	C235.921539,246.660980 228.282059,257.541534 227.513519,272.630035 
	C226.765793,287.309875 232.984848,298.369110 245.433167,305.962891 
	C252.838898,310.480560 261.009003,312.608704 269.629211,312.993774 
	C282.800446,313.582153 294.953796,310.493683 305.957275,301.981842 
	C306.090515,304.976715 306.191071,307.236755 306.303467,309.763428 
	C319.079163,309.763428 331.628662,309.763428 344.653290,309.763428 
	C344.653290,307.861481 344.653290,306.227600 344.653290,304.593719 
	C344.653168,280.108154 344.546844,255.622009 344.685577,231.137238 
	C344.802490,210.502853 335.198059,196.053421 316.631348,187.957245 
	C296.643433,179.241333 276.221405,179.332901 255.222733,187.695007 
M143.788574,268.486237 
	C132.861542,270.808716 121.934517,273.131226 110.797974,275.498230 
	C111.892326,285.320953 116.436913,292.274536 123.025139,297.977081 
	C134.602203,307.997864 148.441162,312.236877 163.459061,312.956848 
	C176.533676,313.583679 189.088287,311.504395 200.196960,304.043518 
	C223.848114,288.158691 222.450684,254.009613 197.483673,240.386688 
	C192.424850,237.626404 186.778854,235.862991 181.279221,234.008713 
	C173.405701,231.354019 165.354645,229.220535 157.506592,226.497833 
	C153.847641,225.228470 151.243301,222.558319 151.881012,218.124496 
	C152.526337,213.637558 155.657928,211.714294 159.707809,210.893082 
	C168.607635,209.088425 177.063782,213.061951 182.264389,221.242020 
	C183.025818,222.439667 184.655197,224.128860 185.640152,223.980347 
	C195.913940,222.431091 206.138077,220.552567 216.693619,218.709900 
	C213.141068,204.389664 205.207336,194.323547 192.706345,188.232391 
	C175.882843,180.035110 158.325089,179.343903 140.732468,185.348938 
	C129.089249,189.323212 120.769157,197.225861 117.065102,209.280212 
	C111.368759,227.818161 118.025658,244.884476 135.408707,253.517166 
	C144.422821,257.993744 154.428604,260.449371 163.912521,264.014465 
	C168.399673,265.701263 173.081619,267.297424 177.016907,269.921875 
	C182.543106,273.607330 181.396881,280.248962 175.263672,282.808746 
	C163.224792,287.833282 148.658951,281.506836 143.788574,268.486237 
M476.216522,237.500763 
	C476.216522,230.887787 476.216522,224.274811 476.216522,217.018906 
	C485.994263,217.018906 495.202850,217.018906 504.390930,217.018906 
	C504.390930,205.937347 504.390930,195.512970 504.390930,184.433899 
	C494.868500,184.433899 485.639008,184.433899 476.067566,184.433899 
	C476.067566,173.002197 476.067566,162.226334 476.067566,151.392395 
	C462.995758,151.392395 450.304871,151.392395 437.782959,151.392395 
	C437.274109,159.255264 437.283997,166.780533 436.176910,174.137726 
	C434.972076,182.144608 431.565308,184.526245 423.564880,184.658615 
	C420.790833,184.704514 418.015381,184.665924 415.206055,184.665924 
	C415.206055,195.811249 415.206055,206.362457 415.206055,217.319946 
	C422.656616,217.319946 429.761475,217.319946 437.308289,217.319946 
	C437.308289,219.528458 437.308075,221.327194 437.308289,223.125946 
	C437.309937,237.791245 437.230164,252.457123 437.336243,267.121674 
	C437.443817,281.991333 442.418457,294.726990 455.235321,303.110352 
	C472.913391,314.673370 491.773224,312.825989 511.207764,307.435211 
	C509.452362,297.101379 507.793793,287.337585 506.145294,277.632874 
	C501.391296,278.360413 497.316071,279.176025 493.200439,279.576813 
	C482.204468,280.647614 476.413177,275.502380 476.246826,264.497589 
	C476.115875,255.833710 476.217957,247.166275 476.216522,237.500763 
M363.315094,145.549988 
	C363.315094,200.278122 363.315094,255.006241 363.315094,309.798523 
	C376.575531,309.798523 389.166473,309.798523 401.990906,309.798523 
	C401.990906,251.340698 401.990906,193.136353 401.990906,134.757004 
	C389.064423,134.757004 376.364502,134.757004 363.315094,134.757004 
	C363.315094,138.288971 363.315094,141.430527 363.315094,145.549988 
M343.057617,337.516296 
	C343.057617,333.368652 343.057617,329.221039 343.057617,324.767517 
	C326.123810,322.237823 311.205231,325.135895 298.795227,339.094879 
	C298.795227,334.327820 298.795227,330.880798 298.795227,327.272919 
	C285.761963,327.272919 273.057861,327.272919 260.260071,327.272919 
	C260.260071,369.001221 260.260071,410.400085 260.260071,451.969910 
	C273.198944,451.969910 285.895416,451.969910 298.949066,451.969910 
	C298.949066,449.999542 298.949005,448.359283 298.949066,446.719025 
	C298.949646,427.398773 298.931610,408.078461 298.956451,388.758240 
	C298.978394,371.672760 308.329346,360.951111 325.463593,358.987335 
	C331.134430,358.337402 336.942535,358.884857 343.057617,358.884857 
	C343.057617,351.782501 343.057617,345.147125 343.057617,337.516296 
M539.765930,417.834595 
	C538.778137,416.713623 537.869507,415.509155 536.789856,414.485046 
	C529.294189,407.375366 517.995667,406.160858 509.112640,411.462677 
	C500.326355,416.706757 495.890350,427.189758 498.601562,436.751373 
	C501.258667,446.122314 507.570099,451.847626 517.072510,453.505554 
	C526.409302,455.134583 534.274170,451.858215 539.727478,444.150177 
	C545.586914,435.868195 545.525452,427.115143 539.765930,417.834595 
z"/>
<path fill="#FFFDFD" opacity="1.000000" stroke="none" 
	d="
M215.718002,495.742920 
	C183.259140,512.294556 150.995972,511.462128 118.877876,496.097687 
	C109.867043,491.787140 102.745949,484.996887 98.006332,475.452667 
	C107.406776,469.616577 116.690636,463.852875 125.769066,458.216705 
	C142.120697,474.330872 161.456680,477.501343 182.748856,473.000763 
	C184.682922,472.591949 186.566650,471.814880 188.384781,471.008301 
	C202.684799,464.664459 206.497910,451.612274 197.830017,437.776886 
	C181.810822,449.497101 163.951736,452.406006 144.843094,447.997070 
	C130.689224,444.731293 119.153671,437.171295 110.412880,425.545319 
	C92.157913,401.264740 94.243546,365.272125 114.844398,343.067352 
	C135.640381,320.652252 173.721909,317.530365 197.586914,335.879730 
	C197.586914,332.819092 197.586914,330.156158 197.586914,327.218689 
	C210.773041,327.218689 223.381180,327.218689 236.802155,327.218689 
	C236.802155,328.917999 236.802155,330.660126 236.802155,332.402252 
	C236.802063,363.896942 236.777588,395.391693 236.849503,426.886200 
	C236.855087,429.329224 237.212173,431.874359 237.953949,434.196960 
	C246.147858,459.853302 238.691864,480.835175 215.718002,495.742920 
M185.330627,364.027435 
	C180.806946,362.457001 176.395157,360.207458 171.739120,359.440277 
	C156.219254,356.883209 142.032990,365.261963 138.063187,378.780212 
	C132.808624,396.673431 144.152573,412.544067 163.699005,414.645691 
	C177.790543,416.160858 191.180954,409.056091 195.842575,397.590851 
	C200.737076,385.552856 196.914383,372.727386 185.330627,364.027435 
z"/>
<path fill="#FFFEFE" opacity="1.000000" stroke="none" 
	d="
M486.637329,354.418091 
	C498.360565,377.106323 499.104675,399.917542 487.904297,422.387207 
	C471.932281,454.429657 428.493683,465.592957 398.429321,445.996002 
	C397.367065,445.303589 396.275848,444.655579 394.507385,443.558319 
	C394.507385,463.528412 394.507385,482.747650 394.507385,502.267242 
	C381.427002,502.267242 368.862030,502.267242 355.983704,502.267242 
	C355.983704,443.902924 355.983704,385.706665 355.983704,327.227173 
	C368.670013,327.227173 381.261871,327.227173 394.202667,327.227173 
	C394.376678,329.818726 394.551483,332.421844 394.771393,335.696686 
	C413.305054,322.618591 433.186493,320.921600 453.901611,327.555908 
	C468.090271,332.100067 478.852875,341.262085 486.637329,354.418091 
M421.845276,420.024933 
	C422.677338,420.067535 423.508972,420.133881 424.341522,420.149139 
	C437.543335,420.390625 447.866669,415.163910 453.595001,403.109497 
	C459.132721,391.456177 457.967224,379.828705 449.580109,369.857880 
	C440.874573,359.508545 429.241547,357.020905 416.467865,360.332428 
	C402.891663,363.851929 393.990173,376.501038 394.545105,390.699432 
	C395.145813,406.068298 404.798492,416.757782 421.845276,420.024933 
z"/>
<path fill="#FFFDFD" opacity="1.000000" stroke="none" 
	d="
M255.555664,187.513519 
	C276.221405,179.332901 296.643433,179.241333 316.631348,187.957245 
	C335.198059,196.053421 344.802490,210.502853 344.685577,231.137238 
	C344.546844,255.622009 344.653168,280.108154 344.653290,304.593719 
	C344.653290,306.227600 344.653290,307.861481 344.653290,309.763428 
	C331.628662,309.763428 319.079163,309.763428 306.303467,309.763428 
	C306.191071,307.236755 306.090515,304.976715 305.957275,301.981842 
	C294.953796,310.493683 282.800446,313.582153 269.629211,312.993774 
	C261.009003,312.608704 252.838898,310.480560 245.433167,305.962891 
	C232.984848,298.369110 226.765793,287.309875 227.513519,272.630035 
	C228.282059,257.541534 235.921539,246.660980 250.011856,242.130905 
	C262.264008,238.191818 275.263916,236.552536 287.961121,234.036880 
	C292.690765,233.099808 297.482391,232.402496 302.277405,231.894272 
	C305.416718,231.561539 306.072449,230.044388 305.702820,227.220764 
	C304.910370,221.167084 301.522736,217.286835 295.081055,215.413803 
	C281.414124,211.439896 268.053558,216.104187 259.841614,227.722885 
	C258.991241,228.926071 258.172760,230.151794 257.125549,231.679062 
	C247.302155,226.520081 237.639099,221.445297 227.659821,216.204437 
	C233.182999,202.765366 242.436218,193.542419 255.555664,187.513519 
M275.246429,283.749298 
	C282.164490,284.685730 288.900116,284.187836 295.203796,280.928253 
	C303.672699,276.549072 307.565552,267.640747 304.817902,258.481567 
	C294.378448,260.155853 283.826965,261.571899 273.400024,263.621613 
	C266.909210,264.897583 263.786743,270.196381 265.404144,275.794006 
	C266.708252,280.307495 270.184570,282.389526 275.246429,283.749298 
z"/>
<path fill="#FFFDFD" opacity="1.000000" stroke="none" 
	d="
M143.905655,268.862976 
	C148.658951,281.506836 163.224792,287.833282 175.263672,282.808746 
	C181.396881,280.248962 182.543106,273.607330 177.016907,269.921875 
	C173.081619,267.297424 168.399673,265.701263 163.912521,264.014465 
	C154.428604,260.449371 144.422821,257.993744 135.408707,253.517166 
	C118.025658,244.884476 111.368759,227.818161 117.065102,209.280212 
	C120.769157,197.225861 129.089249,189.323212 140.732468,185.348938 
	C158.325089,179.343903 175.882843,180.035110 192.706345,188.232391 
	C205.207336,194.323547 213.141068,204.389664 216.693619,218.709900 
	C206.138077,220.552567 195.913940,222.431091 185.640152,223.980347 
	C184.655197,224.128860 183.025818,222.439667 182.264389,221.242020 
	C177.063782,213.061951 168.607635,209.088425 159.707809,210.893082 
	C155.657928,211.714294 152.526337,213.637558 151.881012,218.124496 
	C151.243301,222.558319 153.847641,225.228470 157.506592,226.497833 
	C165.354645,229.220535 173.405701,231.354019 181.279221,234.008713 
	C186.778854,235.862991 192.424850,237.626404 197.483673,240.386688 
	C222.450684,254.009613 223.848114,288.158691 200.196960,304.043518 
	C189.088287,311.504395 176.533676,313.583679 163.459061,312.956848 
	C148.441162,312.236877 134.602203,307.997864 123.025139,297.977081 
	C116.436913,292.274536 111.892326,285.320953 110.797974,275.498230 
	C121.934517,273.131226 132.861542,270.808716 143.905655,268.862976 
z"/>
<path fill="#FFFDFD" opacity="1.000000" stroke="none" 
	d="
M476.216522,238.000595 
	C476.217957,247.166275 476.115875,255.833710 476.246826,264.497589 
	C476.413177,275.502380 482.204468,280.647614 493.200439,279.576813 
	C497.316071,279.176025 501.391296,278.360413 506.145294,277.632874 
	C507.793793,287.337585 509.452362,297.101379 511.207764,307.435211 
	C491.773224,312.825989 472.913391,314.673370 455.235321,303.110352 
	C442.418457,294.726990 437.443817,281.991333 437.336243,267.121674 
	C437.230164,252.457123 437.309937,237.791245 437.308289,223.125946 
	C437.308075,221.327194 437.308289,219.528458 437.308289,217.319946 
	C429.761475,217.319946 422.656616,217.319946 415.206055,217.319946 
	C415.206055,206.362457 415.206055,195.811249 415.206055,184.665924 
	C418.015381,184.665924 420.790833,184.704514 423.564880,184.658615 
	C431.565308,184.526245 434.972076,182.144608 436.176910,174.137726 
	C437.283997,166.780533 437.274109,159.255264 437.782959,151.392395 
	C450.304871,151.392395 462.995758,151.392395 476.067566,151.392395 
	C476.067566,162.226334 476.067566,173.002197 476.067566,184.433899 
	C485.639008,184.433899 494.868500,184.433899 504.390930,184.433899 
	C504.390930,195.512970 504.390930,205.937347 504.390930,217.018906 
	C495.202850,217.018906 485.994263,217.018906 476.216522,217.018906 
	C476.216522,224.274811 476.216522,230.887787 476.216522,238.000595 
z"/>
<path fill="#FFFCFC" opacity="1.000000" stroke="none" 
	d="
M363.315094,145.061035 
	C363.315094,141.430527 363.315094,138.288971 363.315094,134.757004 
	C376.364502,134.757004 389.064423,134.757004 401.990906,134.757004 
	C401.990906,193.136353 401.990906,251.340698 401.990906,309.798523 
	C389.166473,309.798523 376.575531,309.798523 363.315094,309.798523 
	C363.315094,255.006241 363.315094,200.278122 363.315094,145.061035 
z"/>
<path fill="#FFFEFE" opacity="1.000000" stroke="none" 
	d="
M343.057617,338.014038 
	C343.057617,345.147125 343.057617,351.782501 343.057617,358.884857 
	C336.942535,358.884857 331.134430,358.337402 325.463593,358.987335 
	C308.329346,360.951111 298.978394,371.672760 298.956451,388.758240 
	C298.931610,408.078461 298.949646,427.398773 298.949066,446.719025 
	C298.949005,448.359283 298.949066,449.999542 298.949066,451.969910 
	C285.895416,451.969910 273.198944,451.969910 260.260071,451.969910 
	C260.260071,410.400085 260.260071,369.001221 260.260071,327.272919 
	C273.057861,327.272919 285.761963,327.272919 298.795227,327.272919 
	C298.795227,330.880798 298.795227,334.327820 298.795227,339.094879 
	C311.205231,325.135895 326.123810,322.237823 343.057617,324.767517 
	C343.057617,329.221039 343.057617,333.368652 343.057617,338.014038 
z"/>
<path fill="#FFFCFC" opacity="1.000000" stroke="none" 
	d="
M539.961182,418.146301 
	C545.525452,427.115143 545.586914,435.868195 539.727478,444.150177 
	C534.274170,451.858215 526.409302,455.134583 517.072510,453.505554 
	C507.570099,451.847626 501.258667,446.122314 498.601562,436.751373 
	C495.890350,427.189758 500.326355,416.706757 509.112640,411.462677 
	C517.995667,406.160858 529.294189,407.375366 536.789856,414.485046 
	C537.869507,415.509155 538.778137,416.713623 539.961182,418.146301 
z"/>
<path fill="#E22429" opacity="1.000000" stroke="none" 
	d="
M185.642700,364.222015 
	C196.914383,372.727386 200.737076,385.552856 195.842575,397.590851 
	C191.180954,409.056091 177.790543,416.160858 163.699005,414.645691 
	C144.152573,412.544067 132.808624,396.673431 138.063187,378.780212 
	C142.032990,365.261963 156.219254,356.883209 171.739120,359.440277 
	C176.395157,360.207458 180.806946,362.457001 185.642700,364.222015 
z"/>
<path fill="#E22428" opacity="1.000000" stroke="none" 
	d="
M421.398682,419.983887 
	C404.798492,416.757782 395.145813,406.068298 394.545105,390.699432 
	C393.990173,376.501038 402.891663,363.851929 416.467865,360.332428 
	C429.241547,357.020905 440.874573,359.508545 449.580109,369.857880 
	C457.967224,379.828705 459.132721,391.456177 453.595001,403.109497 
	C447.866669,415.163910 437.543335,420.390625 424.341522,420.149139 
	C423.508972,420.133881 422.677338,420.067535 421.398682,419.983887 
z"/>
<path fill="#E3262B" opacity="1.000000" stroke="none" 
	d="
M274.839691,283.632935 
	C270.184570,282.389526 266.708252,280.307495 265.404144,275.794006 
	C263.786743,270.196381 266.909210,264.897583 273.400024,263.621613 
	C283.826965,261.571899 294.378448,260.155853 304.817902,258.481567 
	C307.565552,267.640747 303.672699,276.549072 295.203796,280.928253 
	C288.900116,284.187836 282.164490,284.685730 274.839691,283.632935 
z"/>
</svg>